# xmcd CD database file
#
# Track frame offsets:
#	150
#	17910
#	37695
#	52213
#	104810
#	124673
#	155438
#	179575
#
# Disc length: 2747 seconds
#
# Revision: 2
# Processed by: cddbd v1.4PL0 Copyright (c) Steve Scherf et al.
# Submitted via: CDex 1.51
#
DISCID=6b0ab908
DTITLE=New Riders Of The Purple Sage - Vintage Nrps (Live 1971)
DYEAR=1986
DGENRE=Rock
TTITLE0=I Don't Know You
TTITLE1=Cecilia
TTITLE2=Whatcha Gonna Do
TTITLE3=Dirty Business
TTITLE4=Fair Chance To Know
TTITLE5=Garden Of Eden
TTITLE6=Portland Woman
TTITLE7=Honky Tonk Women
EXTD=YEAR: 1986
EXTT0=
EXTT1=
EXTT2=
EXTT3=
EXTT4=
EXTT5=
EXTT6=
EXTT7=
PLAYORDER=
